<svg id="Layer_1" data-name="Layer 1" xmlns="http://www.w3.org/2000/svg" viewBox="0 0 600 600"><defs><style>.cls-1{font-size:35.77px;font-family:ArialMT, Arial;}.cls-2{font-size:24px;}.cls-3{font-size:15px;}.cls-4,.cls-5,.cls-6,.cls-7,.cls-9{fill:none;stroke-miterlimit:10;}.cls-4,.cls-5,.cls-6{stroke:#000;}.cls-4{stroke-width:2px;}.cls-5,.cls-7{stroke-width:3px;}.cls-6{stroke-dasharray:12;}.cls-7,.cls-9{stroke:red;}.cls-7{stroke-dasharray:12 12;}.cls-8{fill:red;}.cls-9{stroke-width:4px;}</style></defs><title>2</title><text class="cls-1" transform="translate(250.22 105.08)">F<tspan class="cls-2" x="21.85" y="0">1</tspan><tspan class="cls-3" x="29.84" y="0">y</tspan></text><text class="cls-1" transform="translate(501.72 335.08)">F<tspan class="cls-2" x="21.85" y="0">1</tspan><tspan class="cls-3" x="29.84" y="0">x</tspan></text><text class="cls-1" transform="translate(570.72 339.58)">x</text><text class="cls-1" transform="translate(308.73 332.58)">0</text><text class="cls-1" transform="translate(260.72 31.58)">y</text><text class="cls-1" transform="translate(313.55 211.75)">F<tspan class="cls-2" x="21.85" y="0">2</tspan><tspan class="cls-3" x="29.84" y="0">y</tspan></text><text class="cls-1" transform="translate(311.55 550.41)">F<tspan class="cls-2" x="21.85" y="0">3</tspan><tspan class="cls-3" x="29.84" y="0">y</tspan></text><text class="cls-1" transform="translate(72.89 333.75)">F<tspan class="cls-2" x="21.85" y="0">2</tspan><tspan class="cls-3" x="29.84" y="0">x</tspan></text><text class="cls-1" transform="translate(93.89 191.75)">F<tspan class="cls-2" x="21.85" y="0">2</tspan></text><text class="cls-1" transform="translate(532.89 93.75)">F<tspan class="cls-2" x="21.85" y="0">1</tspan></text><text class="cls-1" transform="translate(163.89 564.75)">F<tspan class="cls-2" x="21.85" y="0">3</tspan></text><text class="cls-1" transform="translate(220.55 335.75)">F<tspan class="cls-2" x="21.85" y="0">3</tspan><tspan class="cls-3" x="29.84" y="0">x</tspan></text><line class="cls-4" x1="163.88" y1="526.43" x2="177.77" y2="526.43"/><polygon points="176.02 532.41 186.38 526.43 176.02 520.45 176.02 532.41"/><line class="cls-4" x1="94.22" y1="155.43" x2="108.1" y2="155.43"/><polygon points="106.35 161.41 116.72 155.43 106.35 149.45 106.35 161.41"/><line class="cls-4" x1="536.69" y1="59.44" x2="550.58" y2="59.44"/><polygon points="548.83 65.42 559.19 59.44 548.83 53.45 548.83 65.42"/><line class="cls-5" x1="300.5" y1="14.73" x2="300.5" y2="599.66"/><polygon points="290.02 17.79 300.5 -0.34 310.97 17.79 290.02 17.79"/><line class="cls-5" x1="0.56" y1="299.77" x2="585.49" y2="299.77"/><polygon points="582.42 310.24 600.56 299.77 582.42 289.3 582.42 310.24"/><rect class="cls-6" x="300.72" y="100.18" width="250" height="200"/><rect class="cls-6" x="200.57" y="300.35" width="100" height="250"/><rect class="cls-6" x="100.05" y="200.18" width="200" height="100"/><line class="cls-7" x1="300.55" y1="299.31" x2="109.04" y2="204.94"/><polygon class="cls-8" points="114.31 199.2 99.38 200.18 107.69 212.62 114.31 199.2"/><line class="cls-7" x1="299.72" y1="299.51" x2="541.29" y2="107.54"/><polygon class="cls-8" points="544.23 114.76 549.72 100.85 534.92 103.05 544.23 114.76"/><line class="cls-7" x1="299.55" y1="299.68" x2="204.62" y2="540.42"/><polygon class="cls-8" points="198.47 535.64 200.67 550.43 212.38 541.12 198.47 535.64"/><line class="cls-9" x1="300.42" y1="300.18" x2="300.42" y2="532.96"/><polygon class="cls-8" points="288.46 529.46 300.42 550.18 312.39 529.46 288.46 529.46"/><line class="cls-9" x1="300.22" y1="299.68" x2="217.77" y2="299.68"/><polygon class="cls-8" points="221.27 287.71 200.55 299.68 221.27 311.65 221.27 287.71"/><line class="cls-9" x1="300.55" y1="299.93" x2="116.77" y2="299.93"/><polygon class="cls-8" points="120.27 287.96 99.55 299.93 120.27 311.9 120.27 287.96"/><line class="cls-9" x1="300.05" y1="300.18" x2="300.05" y2="117.4"/><polygon class="cls-8" points="312.02 120.91 300.05 100.18 288.08 120.91 312.02 120.91"/><line class="cls-9" x1="300.55" y1="299.68" x2="532.83" y2="299.68"/><polygon class="cls-8" points="529.32 311.65 550.05 299.68 529.32 287.71 529.32 311.65"/><line class="cls-9" x1="299.72" y1="298.85" x2="299.72" y2="217.4"/><polygon class="cls-8" points="311.68 220.91 299.72 200.18 287.75 220.91 311.68 220.91"/><circle cx="299.55" cy="299.68" r="4.63"/></svg>