<svg id="Layer_1" data-name="Layer 1" xmlns="http://www.w3.org/2000/svg" viewBox="0 0 1576 1141.03"><defs><style>.cls-1,.cls-11,.cls-12,.cls-13,.cls-14,.cls-15,.cls-5,.cls-8{fill:none;}.cls-1{stroke:red;stroke-width:4px;}.cls-1,.cls-11,.cls-12,.cls-13,.cls-14,.cls-15,.cls-4,.cls-5,.cls-7,.cls-8{stroke-miterlimit:10;}.cls-2,.cls-9{fill:red;}.cls-3{fill:#1a1a1a;}.cls-4{fill:#00a99d;stroke:#000;}.cls-5{stroke:#32348d;}.cls-5,.cls-7{stroke-width:3px;}.cls-6{fill:#32348d;}.cls-7{fill:#4d4d4d;}.cls-7,.cls-8{stroke:#4d4d4d;}.cls-8{stroke-width:5px;}.cls-10,.cls-9{font-size:63.78px;font-family:MyriadPro-Regular, Myriad Pro;}.cls-11,.cls-12,.cls-13,.cls-14,.cls-15{stroke:#1a1a1a;stroke-width:2px;}.cls-12{stroke-dasharray:12.08 12.08;}.cls-13{stroke-dasharray:11.86 11.86;}.cls-14{stroke-dasharray:11.84 11.84;}.cls-15{stroke-dasharray:11.93 11.93;}</style></defs><title>Deslocamento</title><line class="cls-1" x1="467" y1="433" x2="467" y2="472.31"/><polygon class="cls-2" points="449.85 467.3 467 497 484.15 467.3 449.85 467.3"/><line class="cls-1" x1="747" y1="665" x2="747" y2="778.31"/><polygon class="cls-2" points="729.85 773.29 747 803 764.15 773.29 729.85 773.29"/><line class="cls-1" x1="1031" y1="901" x2="1031" y2="1062.31"/><polygon class="cls-2" points="1013.85 1057.3 1031 1087 1048.15 1057.3 1013.85 1057.3"/><ellipse class="cls-3" cx="104" cy="1087.55" rx="80" ry="18.33"/><rect class="cls-4" x="97.5" y="38.67" width="144.17" height="16.5" rx="8.25" ry="8.25"/><rect class="cls-4" x="97" y="19" width="11.67" height="1078.16" rx="5.83" ry="5.83"/><ellipse class="cls-5" cx="216.19" cy="85.76" rx="32.68" ry="4.89"/><ellipse class="cls-5" cx="216.19" cy="103.23" rx="32.68" ry="4.89"/><ellipse class="cls-5" cx="216.19" cy="119.5" rx="32.68" ry="4.89"/><path class="cls-5" d="M241.17,82.61c10,1.26,17.42,5.62,18.33,10.72,1,5.78-6.45,11.36-17.88,13"/><path class="cls-5" d="M241.17,88.91c11.54-3,19.75-8.24,19.27-13.18-.7-7.07-19.36-14.84-44.25-12.58"/><path class="cls-5" d="M241.17,100.08c11.31,1,19.37,6.19,18.8,11.89-.54,5.28-8.36,9.8-18.8,10.67"/><ellipse class="cls-5" cx="216.56" cy="135.9" rx="32.68" ry="4.89"/><ellipse class="cls-5" cx="216.56" cy="153.37" rx="32.68" ry="4.89"/><ellipse class="cls-5" cx="216.56" cy="169.64" rx="32.68" ry="4.89"/><path class="cls-5" d="M241.54,132.75c10,1.26,17.42,5.62,18.33,10.72,1,5.78-6.45,11.36-17.88,13"/><path class="cls-5" d="M241.54,139.05c12.63-1.27,20.85-7.31,19.27-13.18-1.31-4.83-9.1-8.89-19.27-9.8"/><path class="cls-5" d="M241.54,150.22c11.3,1,19.37,6.19,18.8,11.89-.54,5.28-8.36,9.81-18.8,10.67"/><ellipse class="cls-5" cx="216.15" cy="187.34" rx="32.68" ry="4.89"/><path class="cls-5" d="M242.54,166.71c10,1.26,17.42,5.63,18.32,10.73,1,5.78-6.44,11.36-17.87,13"/><path class="cls-5" d="M241.13,184.19c1.55.38,18.48,4.7,18.66,10.61S242.87,208.2,216.15,208"/><line class="cls-5" x1="216.19" y1="63.15" x2="216.19" y2="51.41"/><line class="cls-5" x1="216.15" y1="207.97" x2="216.15" y2="216.25"/><path class="cls-6" d="M209,215.89a7.11,7.11,0,1,0,7.11-7.1A7.11,7.11,0,0,0,209,215.89Z"/><ellipse class="cls-3" cx="355" cy="1087.55" rx="80" ry="18.33"/><rect class="cls-4" x="348.5" y="38.67" width="144.17" height="16.5" rx="8.25" ry="8.25"/><rect class="cls-4" x="348" y="19" width="11.67" height="1078.16" rx="5.83" ry="5.83"/><ellipse class="cls-5" cx="467.19" cy="113.78" rx="32.68" ry="8.88"/><ellipse class="cls-5" cx="467.19" cy="145.51" rx="32.68" ry="8.88"/><ellipse class="cls-5" cx="467.19" cy="175.04" rx="32.68" ry="8.88"/><path class="cls-5" d="M492.18,108.06c10,2.29,17.41,10.22,18.32,19.48,1,10.49-6.45,20.63-17.87,23.54"/><path class="cls-5" d="M492.18,119.49c11.54-5.5,19.74-15,19.26-23.91-.69-12.84-19.36-27-44.25-22.86"/><path class="cls-5" d="M492.18,139.79c11.3,1.74,19.36,11.23,18.79,21.59-.53,9.59-8.36,17.8-18.79,19.38"/><ellipse class="cls-5" cx="467.56" cy="204.83" rx="32.68" ry="8.88"/><ellipse class="cls-5" cx="467.56" cy="236.56" rx="32.68" ry="8.88"/><ellipse class="cls-5" cx="467.56" cy="266.09" rx="32.68" ry="8.88"/><path class="cls-5" d="M492.54,199.11c10,2.29,17.42,10.22,18.33,19.48,1,10.49-6.45,20.63-17.87,23.54"/><path class="cls-5" d="M492.54,210.54c12.63-2.29,20.85-13.26,19.27-23.91-1.31-8.79-9.1-16.16-19.27-17.8"/><path class="cls-5" d="M492.54,230.84c11.31,1.74,19.37,11.23,18.8,21.59-.53,9.59-8.36,17.8-18.8,19.38"/><ellipse class="cls-5" cx="467.15" cy="298.24" rx="32.68" ry="8.88"/><path class="cls-5" d="M493.54,260.79c10,2.29,17.42,10.22,18.33,19.48,1,10.49-6.45,20.63-17.88,23.54"/><path class="cls-5" d="M492.14,292.52c1.54.7,18.47,8.53,18.65,19.26.17,10.9-16.92,24.34-43.64,23.92"/><line class="cls-5" x1="467.19" y1="72.72" x2="467.19" y2="51.41"/><line class="cls-5" x1="467.15" y1="335.7" x2="467.15" y2="356.25"/><path class="cls-6" d="M460,355.89a7.11,7.11,0,1,0,7.11-7.1A7.11,7.11,0,0,0,460,355.89Z"/><ellipse class="cls-3" cx="636" cy="1087.55" rx="80" ry="18.33"/><rect class="cls-4" x="629.5" y="38.67" width="144.17" height="16.5" rx="8.25" ry="8.25"/><rect class="cls-4" x="629" y="19" width="11.67" height="1078.16" rx="5.83" ry="5.83"/><ellipse class="cls-5" cx="748.19" cy="143" rx="32.68" ry="13.04"/><ellipse class="cls-5" cx="748.19" cy="189.6" rx="32.68" ry="13.04"/><ellipse class="cls-5" cx="748.19" cy="232.97" rx="32.68" ry="13.04"/><path class="cls-5" d="M773.18,134.6c10,3.36,17.41,15,18.32,28.6,1,15.42-6.45,30.3-17.87,34.58"/><path class="cls-5" d="M773.18,151.4c11.54-8.08,19.74-22,19.26-35.13-.69-18.85-19.36-39.59-44.25-33.57"/><path class="cls-5" d="M773.18,181.2c11.3,2.56,19.36,16.5,18.79,31.71-.53,14.08-8.36,26.14-18.79,28.46"/><ellipse class="cls-5" cx="748.56" cy="276.71" rx="32.68" ry="13.04"/><ellipse class="cls-5" cx="748.56" cy="323.32" rx="32.68" ry="13.04"/><ellipse class="cls-5" cx="748.56" cy="366.69" rx="32.68" ry="13.04"/><path class="cls-5" d="M773.55,268.31c10,3.36,17.41,15,18.32,28.61,1,15.41-6.45,30.3-17.87,34.58"/><path class="cls-5" d="M773.55,285.11c12.63-3.38,20.84-19.48,19.26-35.12-1.31-12.9-9.1-23.74-19.26-26.14"/><path class="cls-5" d="M773.55,314.92c11.3,2.56,19.36,16.49,18.79,31.7-.53,14.08-8.36,26.15-18.79,28.47"/><ellipse class="cls-5" cx="748.15" cy="413.9" rx="32.68" ry="13.04"/><path class="cls-5" d="M774.54,358.89c10.05,3.37,17.42,15,18.33,28.61,1,15.41-6.45,30.3-17.87,34.58"/><path class="cls-5" d="M773.14,405.5c1.54,1,18.47,12.52,18.65,28.28.17,16-16.92,35.75-43.64,35.13"/><line class="cls-5" x1="748.19" y1="82.7" x2="748.19" y2="51.41"/><line class="cls-5" x1="748.15" y1="468.91" x2="748.15" y2="502.25"/><path class="cls-6" d="M741.05,501.89a7.11,7.11,0,1,0,7.1-7.1A7.1,7.1,0,0,0,741.05,501.89Z"/><ellipse class="cls-3" cx="917" cy="1087.55" rx="80" ry="18.33"/><rect class="cls-4" x="910.5" y="38.67" width="144.17" height="16.5" rx="8.25" ry="8.25"/><rect class="cls-4" x="910" y="19" width="11.67" height="1078.16" rx="5.83" ry="5.83"/><ellipse class="cls-5" cx="1029.19" cy="173.02" rx="32.68" ry="17.31"/><ellipse class="cls-5" cx="1029.19" cy="234.9" rx="32.68" ry="17.31"/><ellipse class="cls-5" cx="1029.19" cy="292.49" rx="32.68" ry="17.31"/><path class="cls-5" d="M1054.18,161.87c10,4.46,17.41,19.92,18.32,38,1,20.46-6.45,40.23-17.87,45.91"/><path class="cls-5" d="M1054.18,184.17c11.54-10.73,19.74-29.17,19.26-46.64-.69-25-19.36-52.57-44.25-44.57"/><path class="cls-5" d="M1054.18,223.75c11.3,3.4,19.37,21.9,18.79,42.09-.53,18.71-8.36,34.72-18.79,37.8"/><ellipse class="cls-5" cx="1029.56" cy="350.56" rx="32.68" ry="17.31"/><ellipse class="cls-5" cx="1029.56" cy="412.45" rx="32.68" ry="17.31"/><ellipse class="cls-5" cx="1029.56" cy="470.04" rx="32.68" ry="17.31"/><path class="cls-5" d="M1054.55,339.41c10,4.46,17.41,19.93,18.32,38,1,20.47-6.45,40.24-17.87,45.92"/><path class="cls-5" d="M1054.55,361.72c12.63-4.49,20.84-25.87,19.26-46.64-1.31-17.13-9.1-31.51-19.26-34.71"/><path class="cls-5" d="M1054.55,401.3c11.3,3.39,19.37,21.9,18.79,42.09-.53,18.7-8.36,34.72-18.79,37.8"/><ellipse class="cls-5" cx="1029.15" cy="532.72" rx="32.68" ry="17.31"/><path class="cls-5" d="M1055.55,459.69c10,4.46,17.41,19.93,18.32,38,1,20.47-6.45,40.23-17.87,45.92"/><path class="cls-5" d="M1054.14,521.57c1.54,1.36,18.48,16.63,18.65,37.56.18,21.24-16.91,47.46-43.64,46.64"/><line class="cls-5" x1="1029.19" y1="92.96" x2="1029.19" y2="51.41"/><line class="cls-5" x1="1029.15" y1="605.77" x2="1029.15" y2="652.25"/><path class="cls-6" d="M1022.05,651.89a7.11,7.11,0,1,0,7.1-7.1A7.1,7.1,0,0,0,1022.05,651.89Z"/><rect class="cls-7" x="416" y="357" width="104" height="78" rx="12" ry="12"/><rect class="cls-7" x="696" y="503" width="104" height="78" rx="12" ry="12"/><rect class="cls-7" x="696" y="594" width="104" height="78" rx="12" ry="12"/><line class="cls-8" x1="747.5" y1="501" x2="747.5" y2="632"/><rect class="cls-7" x="977.99" y="652.99" width="104" height="78" rx="12" ry="12"/><rect class="cls-7" x="977.99" y="743.99" width="104" height="78" rx="12" ry="12"/><line class="cls-8" x1="1029.49" y1="650.99" x2="1029.49" y2="781.99"/><rect class="cls-7" x="977.99" y="834.99" width="104" height="78" rx="12" ry="12"/><line class="cls-8" x1="1029.49" y1="741.99" x2="1029.49" y2="872.99"/><text class="cls-9" transform="translate(457.23 558.2)">P</text><text class="cls-10" transform="translate(1171.23 314.2)">x</text><text class="cls-10" transform="translate(1296.23 380.2)">2x</text><text class="cls-10" transform="translate(1456.23 524.2)">3x</text><text class="cls-9" transform="translate(741.23 860.2)">2P</text><text class="cls-9" transform="translate(1057.23 1090.2)">3P</text><line class="cls-11" x1="103.77" y1="217.8" x2="109.77" y2="217.8"/><line class="cls-12" x1="121.85" y1="217.8" x2="1516.87" y2="217.8"/><line class="cls-11" x1="1522.91" y1="217.8" x2="1528.91" y2="217.8"/><line class="cls-11" x1="465.81" y1="354.81" x2="471.81" y2="354.81"/><line class="cls-13" x1="483.66" y1="354.81" x2="1212.95" y2="354.81"/><line class="cls-11" x1="1218.88" y1="354.81" x2="1224.88" y2="354.81"/><line class="cls-11" x1="747.83" y1="500.83" x2="753.83" y2="500.83"/><line class="cls-14" x1="765.68" y1="500.83" x2="1351.84" y2="500.83"/><line class="cls-11" x1="1357.76" y1="500.83" x2="1363.76" y2="500.83"/><line class="cls-11" x1="1027.86" y1="650.84" x2="1033.86" y2="650.84"/><line class="cls-15" x1="1045.79" y1="650.84" x2="1516.95" y2="650.84"/><line class="cls-11" x1="1522.91" y1="650.84" x2="1528.91" y2="650.84"/><line class="cls-11" x1="1224.56" y1="338.74" x2="1224.56" y2="235.45"/><polygon class="cls-3" points="1234.53 335.82 1224.56 353.1 1214.59 335.82 1234.53 335.82"/><polygon class="cls-3" points="1234.53 238.37 1224.56 221.1 1214.59 238.37 1234.53 238.37"/><line class="cls-11" x1="1365" y1="481.24" x2="1365" y2="232.45"/><polygon class="cls-3" points="1374.97 478.32 1365 495.59 1355.03 478.32 1374.97 478.32"/><polygon class="cls-3" points="1374.97 235.37 1365 218.1 1355.03 235.37 1374.97 235.37"/><line class="cls-11" x1="1527.54" y1="634.23" x2="1527.54" y2="233.95"/><polygon class="cls-3" points="1537.52 631.31 1527.54 648.58 1517.57 631.31 1537.52 631.31"/><polygon class="cls-3" points="1537.52 236.87 1527.54 219.6 1517.57 236.87 1537.52 236.87"/></svg>